<?xml version="1.0" encoding="utf-8"?>
<!-- Generator: Adobe Illustrator 24.1.2, SVG Export Plug-In . SVG Version: 6.00 Build 0)  -->
<svg version="1.1" xmlns="http://www.w3.org/2000/svg" xmlns:xlink="http://www.w3.org/1999/xlink" x="0px" y="0px"
	 viewBox="0 0 540.18 134.59" style="enable-background:new 0 0 540.18 134.59;" xml:space="preserve">
<style type="text/css">
	.st0{display:none;}
	.st1{display:inline;}
</style>
<g id="Ebene_5">
</g>
<g id="Labs" class="st0">
	<g class="st1">
		<polygon points="350.83,49.92 350.83,43.76 348.72,49.92 347.35,49.92 345.25,43.76 345.25,49.92 343.87,49.92 343.87,42.82 
			346.26,42.82 348.07,48.18 349.88,42.82 352.28,42.82 352.28,49.92 350.83,49.92 		"/>
		<polygon points="340.75,44.12 340.75,49.92 339.16,49.92 339.16,44.12 336.91,44.12 336.91,42.82 342.93,42.82 342.93,44.12 
			340.75,44.12 		"/>
	</g>
	<path class="st1" d="M312.21,67.12c-0.48-2.25-1.25-4.29-2.32-6.14c-1.07-1.85-2.48-3.37-4.23-4.57c-1.75-1.2-3.87-1.8-6.36-1.8
		c-2.6,0-4.62,0.55-6.06,1.65c-1.45,0.9-2.92,2.52-4.42,4.87V40.84h-13.1v52.78h12.65v-6.14h0.15c1.3,2.65,2.82,4.39,4.57,5.24
		c1.7,1,3.54,1.5,5.54,1.5c2.84,0,5.19-0.64,7.04-1.91c1.85-1.27,3.31-2.89,4.38-4.87c1.07-1.97,1.82-4.18,2.25-6.63
		c0.42-2.44,0.64-4.84,0.64-7.19C312.92,71.54,312.69,69.36,312.21,67.12z M298.02,82.02c-0.65,1.95-1.97,2.92-3.97,2.92
		c-1.65,0-2.9-0.97-3.74-2.92c-1-1.75-1.5-4.29-1.5-7.64c0-0.85,0.06-1.87,0.19-3.07c0.12-1.2,0.37-2.36,0.75-3.48
		c0.37-1.12,0.9-2.1,1.57-2.92c0.67-0.82,1.58-1.28,2.73-1.38c1.3,0.1,2.28,0.54,2.96,1.31c0.67,0.77,1.18,1.71,1.54,2.81
		c0.35,1.1,0.55,2.26,0.6,3.48c0.05,1.22,0.08,2.31,0.08,3.26C299.22,77.68,298.82,80.22,298.02,82.02z"/>
	<path class="st1" d="M331.46,53.72c2.1,0,4.07,0.18,5.92,0.52c1.85,0.35,3.49,0.77,4.94,1.27l-0.45,9.73
		c-1.25-0.55-2.72-1.08-4.42-1.61c-1.7-0.52-3.42-0.79-5.17-0.79c-1.3,0-2.42,0.21-3.37,0.64c-0.95,0.42-1.42,1.16-1.42,2.21
		c0,0.7,0.35,1.3,1.05,1.8c0.7,0.5,1.85,1.05,3.44,1.65l4.49,1.65c1.2,0.45,2.28,0.95,3.26,1.5c0.97,0.55,1.8,1.24,2.47,2.06
		s1.19,1.82,1.54,3c0.35,1.17,0.52,2.63,0.52,4.38c0,4.04-1.32,7.19-3.97,9.43s-6.89,3.37-12.73,3.37c-1.05,0-2.16-0.05-3.33-0.15
		c-1.17-0.1-2.31-0.24-3.41-0.41c-1.1-0.18-2.1-0.37-3-0.6s-1.62-0.44-2.17-0.64l0.3-10.41c1.05,0.55,2.41,1.15,4.08,1.8
		c1.67,0.65,3.71,0.97,6.1,0.97c3.69,0,5.54-0.92,5.54-2.77c0-0.7-0.31-1.27-0.94-1.72c-0.63-0.45-1.76-0.97-3.41-1.57l-4.12-1.5
		c-3.1-1.15-5.2-2.64-6.33-4.49c-1.12-1.85-1.68-4.02-1.68-6.51c0-1.75,0.29-3.39,0.86-4.94c0.57-1.55,1.51-2.89,2.81-4.04
		c1.3-1.15,2.98-2.07,5.05-2.77C326.01,54.07,328.52,53.72,331.46,53.72z"/>
	<g class="st1">
		<path d="M219.92,82.92V40.84h-14.08v42.13c0.99,1.49,1.49,3.19,1.49,5.13c0,1.89-0.5,3.57-1.49,5.04v0.42h31.29V82.92H219.92z"/>
	</g>
	<path class="st1" d="M272.49,68.1c0-2-0.21-3.87-0.64-5.62c-0.42-1.75-1.24-3.28-2.43-4.6c-1.2-1.32-2.86-2.36-4.98-3.11
		c-2.12-0.75-4.9-1.12-8.35-1.12c-3.29,0-6.15,0.27-8.57,0.82c-2.42,0.55-4.43,1.12-6.03,1.72l0.45,9.66
		c1.45-0.9,3.16-1.73,5.13-2.51c1.97-0.77,4-1.16,6.1-1.16c1.35,0,2.48,0.16,3.41,0.49c0.92,0.33,1.67,0.74,2.25,1.24
		c0.57,0.5,1,1.07,1.27,1.72c0.27,0.65,0.41,1.27,0.41,1.87v1.2h-3.44c-6.89,0-11.95,1.12-15.2,3.37c-2.91,2.02-4.49,4.91-4.79,8.66
		h0.06h2.2v2.2v6.95c0.29,0.41,0.61,0.81,0.96,1.17c1.05,1.07,2.29,1.91,3.74,2.51c1.45,0.6,3.04,0.9,4.79,0.9
		c2.34,0,4.39-0.5,6.14-1.5c1.75-1,3.59-2.59,5.54-4.79c0,0.9,0,5.39,0,5.39h11.98C272.49,92.4,272.49,68.1,272.49,68.1z
		 M260.51,75.96c0,0.9-0.06,1.93-0.19,3.11c-0.13,1.17-0.42,2.26-0.9,3.26c-0.48,1-1.16,1.85-2.06,2.55
		c-0.9,0.7-2.15,1.05-3.74,1.05c-1.4,0-2.52-0.36-3.37-1.08s-1.27-1.96-1.27-3.71c0-2.29,0.91-3.94,2.73-4.94
		c1.82-1,4.23-1.5,7.22-1.5h1.57V75.96z"/>
</g>
<g id="Software">
	<path d="M285.89,93.63v-29.2h-6.59v-9.06h6.59v-5.43c0-8.21,4.25-12.32,12.75-12.32c1.84,0,3.5,0.07,5,0.22
		c1.5,0.14,2.68,0.39,3.55,0.72l-0.36,9.42c-0.53-0.53-1.62-0.8-3.26-0.8c-2.99,0-4.49,1.67-4.49,5v3.19h7.17v9.06h-7.17v29.2
		H285.89L285.89,93.63z"/>
	<path d="M335.31,64.46h-7.39v16.23c0,1.55,0.39,2.72,1.16,3.51c0.77,0.8,1.84,1.2,3.19,1.2c1.4,0,2.42-0.24,3.04-0.72l0.36,8.98
		c-2.17,0.63-5.07,0.94-8.7,0.94c-3.72,0-6.69-1.01-8.91-3.04c-2.22-2.03-3.33-4.78-3.33-8.26V64.46h-6.52V55.4h6.52v-8.04
		l13.19-4.13V55.4h7.39V64.46L335.31,64.46z"/>
	<polygon points="372.2,93.64 366.83,66.47 366.61,66.47 361.18,93.64 346.54,93.64 336.32,55.38 349.88,55.38 354.66,81.98 
		354.8,81.98 359.59,55.38 374.73,55.38 379.22,81.98 379.37,81.98 384.01,55.38 396.69,55.38 386.4,93.64 372.2,93.64 	"/>
	<path d="M428.64,85.21V68.69c0-2.03-0.16-3.83-0.47-5.4c-0.31-1.57-0.99-3.03-2.03-4.38c-1.04-1.35-2.66-2.43-4.86-3.22
		c-2.2-0.8-5.08-1.2-8.66-1.2c-2.75,0-5.36,0.23-7.83,0.69c-2.46,0.46-4.64,1.05-6.52,1.78l0.43,9.49c1.79-1.06,3.67-1.92,5.65-2.57
		c1.98-0.65,4.28-0.98,6.88-0.98c1.74,0,3.13,0.54,4.17,1.63c1.04,1.09,1.56,2.26,1.56,3.51v1.23h-3.48
		c-13.04,0-19.57,4.37-19.57,13.12c0,3.87,1.07,6.86,3.22,8.99c2.15,2.13,4.94,3.19,8.37,3.19c2.03,0,3.97-0.52,5.83-1.56
		c1.86-1.04,3.73-2.57,5.62-4.6c0,1.26-0.07,5.22-0.07,5.22h11.74C428.64,93.62,428.64,87.15,428.64,85.21z M416.98,76.37
		c0,1.11-0.07,2.2-0.22,3.26c-0.15,1.06-0.46,2.09-0.94,3.08c-0.48,0.99-1.18,1.81-2.1,2.46c-0.92,0.65-2.1,0.98-3.55,0.98
		c-3,0-4.49-1.57-4.49-4.71c0-2.13,0.87-3.7,2.61-4.71c1.74-1.01,4.11-1.52,7.1-1.52h1.59V76.37z"/>
	<polygon points="492.05,51.86 492.05,45.7 489.95,51.86 488.57,51.86 486.47,45.7 486.47,51.86 485.09,51.86 485.09,44.76 
		487.48,44.76 489.3,50.13 491.11,44.76 493.5,44.76 493.5,51.86 492.05,51.86 	"/>
	<polygon points="481.98,46.07 481.98,51.86 480.38,51.86 480.38,46.07 478.14,46.07 478.14,44.76 484.15,44.76 484.15,46.07 
		481.98,46.07 	"/>
	<path d="M489.66,74.24c0-2.71-0.35-5.27-1.05-7.68c-0.7-2.42-1.79-4.57-3.26-6.45c-1.47-1.88-3.35-3.36-5.62-4.42
		c-2.27-1.06-4.9-1.59-7.9-1.59c-3.43,0-6.34,0.68-8.73,2.03c-2.39,1.35-4.14,2.97-5.25,4.86v7.17l-3.41-0.51
		c-0.24,1.21-0.4,2.28-0.47,3.22c-0.07,0.94-0.11,2.02-0.11,3.22c0,3.72,0.56,6.91,1.67,9.57c1.11,2.66,2.61,4.79,4.49,6.41
		c1.88,1.62,4.02,2.78,6.41,3.48c2.39,0.7,4.92,1.05,7.57,1.05c2.66,0,5.1-0.21,7.32-0.62c2.22-0.41,4.3-0.95,6.23-1.63l-0.29-9.28
		c-2.03,0.82-4.13,1.55-6.3,2.17c-2.17,0.63-3.84,0.94-5,0.94c-1.16,0-2.26-0.12-3.3-0.36c-1.04-0.24-2.02-0.66-2.93-1.27
		c-0.92-0.6-1.68-1.44-2.28-2.5c-0.6-1.06-1-2.39-1.2-3.99h23.41V74.24z M477.41,71.05h-11.38c0-2.75,0.51-4.9,1.52-6.45
		c1.01-1.55,2.54-2.32,4.57-2.32c3.53,0,5.29,2.54,5.29,7.61V71.05z"/>
	<path d="M444.22,61.74c0.43-1.84,1.53-3.5,3.3-5c1.76-1.5,3.93-2.25,6.49-2.25c0.72,0,1.45,0.07,2.17,0.22v11.52
		c-1.3-0.24-2.63-0.36-3.99-0.36c-2.22,0-3.97,0.82-5.25,2.46c-1.28,1.64-1.92,3.74-1.92,6.3v18.98h-13.26V66.45
		c0-4.98-0.14-8.67-0.43-11.09h12.39c0.19,0.92,0.31,1.7,0.36,2.36c0.05,0.65,0.07,1.32,0.07,1.99c0,0.15,0,0.48,0,1.02
		c-0.05,0.53-0.07,0.87-0.07,1.01H444.22L444.22,61.74z"/>
	<g>
		<path d="M241.44,77.17c0,2.99-0.39,5.52-1.16,7.57c-0.77,2.05-2.05,3.78-3.84,5.18c-1.79,1.4-3.65,2.37-5.58,2.9
			c-1.93,0.53-4.44,0.8-7.54,0.8h-17.1c0.29-0.39,0.66-1.07,1.12-2.07c0.46-0.99,0.69-2.16,0.69-3.51c0-1.35-0.23-2.5-0.69-3.44
			c-0.46-0.94-0.83-1.58-1.12-1.92l15.51-0.07c1.74,0,3.08-0.28,4.02-0.83c0.94-0.56,1.41-1.65,1.41-3.3c0-1.74-0.6-3.02-1.81-3.84
			c-1.21-0.82-2.97-1.59-5.29-2.32c-0.97-0.34-1.67-0.58-2.1-0.72c-3.58-1.4-6.32-3.31-8.22-5.72c-1.91-2.42-2.86-5.48-2.86-9.2
			c0.1-4.93,1.88-8.67,5.36-11.23c1.69-1.26,3.54-2.19,5.54-2.79c2.01-0.6,4.41-0.95,7.21-1.05c2.71,0,5.19,0.17,7.46,0.51
			c2.27,0.34,4.28,0.87,6.02,1.59v9.93c-1.06-0.63-2.68-1.22-4.86-1.78c-2.17-0.56-4.23-0.83-6.16-0.83c-2.03,0-3.66,0.38-4.89,1.12
			c-1.23,0.75-1.85,1.97-1.85,3.66c0,1.01,0.29,1.92,0.87,2.72c0.58,0.8,1.34,1.49,2.28,2.07c0.94,0.58,1.9,1.07,2.86,1.49
			c0.97,0.41,2.17,0.88,3.62,1.41c1.16,0.43,1.96,0.75,2.39,0.94c2.61,1.11,4.71,2.8,6.3,5.07
			C240.65,71.76,241.44,74.32,241.44,77.17L241.44,77.17z"/>
		<path d="M280.3,66.1h-1h-1.7v-1.7v-3.51c-0.11-0.14-0.2-0.29-0.31-0.43c-1.5-1.87-3.46-3.35-5.9-4.46
			c-2.43-1.11-5.39-1.66-8.88-1.66s-6.45,0.55-8.88,1.66c-2.43,1.11-4.41,2.59-5.93,4.46c-1.52,1.87-2.62,4.02-3.28,6.45
			c-0.66,2.43-1,4.95-1,7.56c0,2.61,0.33,5.12,1,7.56c0.66,2.43,1.76,4.57,3.28,6.41s3.5,3.32,5.93,4.42
			c2.43,1.11,5.39,1.66,8.88,1.66s6.45-0.55,8.88-1.66c2.43-1.11,4.4-2.58,5.9-4.42c1.5-1.84,2.59-3.98,3.28-6.41
			c0.69-2.43,1.03-4.95,1.03-7.56c0-2.6-0.34-5.12-1.03-7.56C280.49,66.63,280.38,66.37,280.3,66.1z M267.56,78.59
			c-0.12,1.33-0.37,2.51-0.74,3.54s-0.9,1.86-1.59,2.47c-0.69,0.62-1.6,0.92-2.73,0.92c-1.13,0-2.04-0.31-2.73-0.92
			c-0.69-0.61-1.22-1.44-1.58-2.47c-0.37-1.03-0.62-2.21-0.74-3.54c-0.12-1.33-0.18-2.7-0.18-4.13c0-1.38,0.06-2.74,0.18-4.09
			c0.12-1.35,0.37-2.54,0.74-3.58c0.37-1.03,0.9-1.87,1.58-2.51c0.69-0.64,1.6-0.96,2.73-0.96c1.13,0,2.04,0.32,2.73,0.96
			c0.69,0.64,1.22,1.47,1.59,2.51c0.37,1.03,0.61,2.22,0.74,3.58c0.12,1.35,0.18,2.72,0.18,4.09
			C267.74,75.89,267.68,77.27,267.56,78.59z"/>
	</g>
</g>
<g id="Tobit">
	<g>
		<polygon points="46.6,52.36 46.6,41.05 87.68,41.05 87.68,52.36 73.84,52.36 73.84,93.41 60.14,93.41 60.14,52.36 		"/>
		<path d="M154.84,67.14c-0.47-2.23-1.24-4.27-2.31-6.1c-1.07-1.83-2.47-3.35-4.2-4.54c-1.74-1.19-3.85-1.79-6.33-1.79
			c-2.58,0-4.59,0.55-6.03,1.64c-1.44,0.89-2.9,2.51-4.39,4.84V41.02h-13.02v52.47h12.58v-6.1h0.15c1.29,2.63,2.8,4.37,4.54,5.21
			c1.69,0.99,3.52,1.49,5.51,1.49c2.83,0,5.16-0.63,7-1.9c1.83-1.26,3.29-2.88,4.35-4.84c1.07-1.96,1.81-4.15,2.23-6.59
			c0.42-2.43,0.63-4.81,0.63-7.14C155.55,71.53,155.31,69.38,154.84,67.14z M140.74,81.95c-0.65,1.93-1.96,2.9-3.94,2.9
			c-1.64,0-2.88-0.97-3.72-2.9c-0.99-1.74-1.49-4.27-1.49-7.59c0-0.84,0.06-1.86,0.19-3.05c0.12-1.19,0.37-2.34,0.74-3.46
			c0.37-1.12,0.89-2.08,1.56-2.9c0.67-0.82,1.57-1.28,2.72-1.38c1.29,0.1,2.27,0.53,2.94,1.3c0.67,0.77,1.18,1.7,1.53,2.79
			c0.35,1.09,0.54,2.25,0.6,3.46c0.05,1.22,0.07,2.3,0.07,3.24C141.93,77.64,141.53,80.17,140.74,81.95z"/>
		<rect x="158.23" y="41.1" width="13.17" height="13.1"/>
		<rect x="158.23" y="58.71" width="13.17" height="34.78"/>
		<polygon points="175.94,41.02 188.89,41.02 188.89,57.62 198.11,57.62 198.11,68.33 188.89,68.33 188.89,93.49 175.94,93.49 		"/>
		<g>
			<path d="M204.56,85.3c-0.35-0.84-0.83-1.57-1.45-2.2c-0.62-0.62-1.34-1.1-2.16-1.45c-0.82-0.35-1.7-0.52-2.64-0.52
				c-0.94,0-1.84,0.17-2.68,0.52c-0.84,0.35-1.58,0.83-2.2,1.45c-0.62,0.62-1.1,1.35-1.45,2.2c-0.35,0.84-0.52,1.74-0.52,2.68
				c0,0.94,0.17,1.82,0.52,2.64c0.35,0.82,0.83,1.54,1.45,2.16c0.62,0.62,1.35,1.1,2.2,1.45c0.84,0.35,1.74,0.52,2.68,0.52
				c1.88,0,3.48-0.66,4.8-1.97c1.31-1.31,1.97-2.91,1.97-4.8C205.08,87.04,204.9,86.15,204.56,85.3z M202.18,91.85
				c-1.09,1.09-2.38,1.64-3.87,1.64c-1.54,0-2.84-0.55-3.91-1.64c-1.07-1.09-1.6-2.38-1.6-3.87c0-1.54,0.53-2.84,1.6-3.91
				c1.07-1.07,2.37-1.6,3.91-1.6c1.49,0,2.78,0.53,3.87,1.6c1.09,1.07,1.64,2.37,1.64,3.91C203.81,89.47,203.27,90.76,202.18,91.85z
				"/>
			<path d="M199.94,88.1c-0.15-0.07-0.3-0.14-0.45-0.19c0.5,0,0.9-0.12,1.23-0.37c0.32-0.25,0.48-0.64,0.48-1.19V86.2
				c0-1.24-0.77-1.86-2.31-1.86h-3.42v7.07h1.71v-2.98h0.89c0.42,0,0.72,0.37,0.97,0.82c0.05,0.1,0.74,1.91,0.89,2.16h1.71
				l-1.34-2.98C200.22,88.28,200.09,88.17,199.94,88.1z M199.16,87.2c-0.27,0.12-0.58,0.19-0.93,0.19h-1.04v-2.01h0.97
				c0.35,0,0.67,0.07,0.97,0.22c0.3,0.15,0.45,0.42,0.45,0.82C199.57,86.82,199.43,87.08,199.16,87.2z"/>
		</g>
		<path d="M111.64,60.74c-2.88-4.02-7.72-6.03-14.51-6.03c-6.8,0-11.66,1.99-14.59,5.95c-2.88,3.92-4.32,8.56-4.32,13.92
			c0,5.36,1.41,9.95,4.24,13.77c2.98,3.92,7.86,5.93,14.66,6.03c6.8,0,11.63-2.03,14.51-6.1c2.88-3.82,4.32-8.38,4.32-13.69
			C115.96,69.28,114.52,64.66,111.64,60.74z M101.02,82.77c-0.76,1.85-2.06,2.77-3.9,2.77c-1.94,0-3.31-0.99-4.12-2.98
			c-0.76-2.03-1.14-4.68-1.14-7.95c0-0.95,0.05-2.22,0.14-3.83c0.05-0.95,0.28-2.08,0.71-3.41c0.38-1.18,0.92-2.11,1.63-2.77
			c0.76-0.66,1.68-0.99,2.77-0.99c1.89,0,3.22,0.92,3.97,2.77c0.76,1.7,1.14,4.45,1.14,8.23C102.22,78.16,101.82,80.88,101.02,82.77
			z"/>
	</g>
</g>
</svg>
